<svg xmlns="http://www.w3.org/2000/svg" viewBox="0 0 515 645"><defs><style>.cls-1,.cls-10,.cls-17{fill:#fff;}.cls-2{fill:#96c342;}.cls-3{fill:#bcd259;}.cls-4{fill:#78a972;}.cls-5{fill:#538794;}.cls-6{fill:#3864a3;}.cls-7{fill:#214f8f;}.cls-8{fill:#6fa07f;}.cls-9{fill:#aaca48;}.cls-10{font-size:90px;font-family:Roboto-Regular, Roboto;letter-spacing:0.11em;}.cls-11{letter-spacing:0.1em;}.cls-12{letter-spacing:0.1em;}.cls-13{letter-spacing:0.11em;}.cls-14{letter-spacing:0.11em;}.cls-15{letter-spacing:0.09em;}.cls-16{letter-spacing:0.1em;}.cls-17{font-size:270.8px;font-family:'Roboto Light', Roboto;letter-spacing:0.15em;}.cls-18{letter-spacing:0.16em;}</style></defs><title>CorrelAid_Dach-zentriert-neg-white</title><g transform="translate(-620,0)">
    <path class="cls-1" d="M828.23,277.77v90.76l99.54,89.63h200.3V638.29H828.6l-.37-.33L628.75,458.34l-.73-.65V188.62l.75-.67L828.23,8.35l.59-.53h299.25V188H928Z"/><path class="cls-1" d="M1135.89,646.11H825.62l-2.6-2.32L622.82,463.52l-2.61-2.33V185.12l3.34-3L825.82,0h310.07V195.77H931l-94.93,85.48v83.8l94.72,85.29h205.12ZM831.6,630.47h288.65V466H924.77L820.41,372V274.29L925,180.13h195.27V15.64H831.82l-196,176.46V454.2Z"/><polygon class="cls-2" points="1128.07 12.56 1128.07 183.62 950.42 76.42 1128.07 12.56"/><polygon class="cls-3" points="1116.72 8.34 941.78 71.22 837.58 8.34 1116.72 8.34"/><polygon class="cls-4" points="924.54 191.58 831.36 275.48 637.08 189.06 876.01 103.18 924.54 191.58"/><polygon class="cls-2" points="1120.96 188.47 931.74 188.47 883.43 100.5 940.92 79.84 1120.96 188.47"/><polygon class="cls-5" points="1119.14 458.68 939.93 566.82 884.45 546.88 932.87 458.68 1119.14 458.68"/><polygon class="cls-6" points="1128.07 462.43 1128.07 634.45 949.41 570.24 1128.07 462.43"/><polygon class="cls-7" points="1117.09 638.81 835.78 638.81 940.81 575.43 1117.09 638.81"/><polygon class="cls-6" points="873.19 551.14 827.25 634.8 825.4 635.92 636.92 466.2 873.19 551.14"/><polygon class="cls-5" points="925.21 456.37 877 544.2 636.63 457.8 830.85 371.42 925.21 456.37"/><polygon class="cls-8" points="828.23 282.65 828.23 364.01 628.02 453.05 628.02 193.61 828.23 282.65"/><polygon class="cls-3" points="872.2 96.24 637.51 180.59 825.55 11.29 872.2 96.24"/><polygon class="cls-9" points="932.3 74.62 879.62 93.56 837.99 17.72 932.3 74.62"/><polygon class="cls-6" points="931.31 572.01 840.59 626.75 880.64 553.82 931.31 572.01"/>
</g></svg>